<?xml version="1.0" standalone="no"?>
<svg viewBox="0 0 200 200" xmlns="http://www.w3.org/2000/svg">
  <path fill="#0f63fe1e" d="M45.9,-68.6C60.4,-62.2,73.6,-50.9,81.9,-36.4C90.1,-21.8,93.3,-4,87.9,10.5C82.5,25,68.5,36.1,56.3,47C44.1,57.9,33.7,68.6,20.1,76.1C6.5,83.5,-10.3,87.8,-24.5,83.6C-38.8,79.4,-50.6,66.7,-58.1,53.1C-65.6,39.5,-68.8,24.9,-69.1,11.1C-69.3,-2.8,-66.4,-15.9,-61.4,-28.5C-56.4,-41.1,-49.2,-53.2,-38.5,-61.4C-27.9,-69.6,-14,-73.9,0.9,-75.3C15.7,-76.6,31.5,-75,45.9,-68.6Z" transform="translate(100 100)" />
</svg>
